<?xml version="1.0" encoding="utf-8"?>
<!-- Generator: Adobe Illustrator 23.1.0, SVG Export Plug-In . SVG Version: 6.00 Build 0)  -->
<svg version="1.1" id="Layer_1" xmlns="http://www.w3.org/2000/svg" xmlns:xlink="http://www.w3.org/1999/xlink" x="0px" y="0px"
	 viewBox="0 0 200 200" xml:space="preserve">
<g>
	<path class="st0"  fill="#eee" d="M150,13.4L150,13.4c-30.9-17.9-69.1-17.9-100,0l0,0C19.1,31.3,0,64.3,0,100v0c0,35.7,19.1,68.7,50,86.6h0
		c30.9,17.9,69.1,17.9,100,0h0c30.9-17.9,50-50.9,50-86.6v0C200,64.3,180.9,31.3,150,13.4z M153.1,111.6l-7.3,39
		c-1.3,6.9-7.3,11.8-14.3,11.8h-9.3c1.4-7.2,2.8-14.4,4.2-21.6c-11.9,12.1-34.4,23.3-51.7,23.3c-10.9,0-19.9-3.9-27-11.6
		C40.6,144.8,37,135,37,123.2c0-15.7,5.7-29.6,17-41.7c0.4-0.4,0.8-0.8,1.2-1.2c11.3-11.5,28.1-19.7,44.5-16.4
		c14.1,2.8,24.6,14.9,27.9,28.5l0.5,1.7c1.1,4.6-1.4,8.6-6,9.8L70.7,117v-7.3l45.2-15.5c-0.7-1.4-1.5-2.8-2.5-4.2
		c-4.9-6.8-11.5-10.2-19.7-10.2C83.5,79.8,74.5,84,67,92.3c-2.7,3-4.9,6.1-6.6,9.4c-2,3.8-3.3,7.8-4.1,12c-0.4,2.5-0.7,5.1-0.7,7.8
		c0,7.6,2.4,13.9,7.1,18.8c4.8,4.9,10.9,7.1,18.3,7.3c8.7,0.3,21-3.2,29.8-7.8c5-2.6,10.9-2.3,15.5,0.9l0.1,0.1
		c0.1-0.6,0.2-1.2,0.4-1.8c2.4-12.4,4.8-24.7,7.2-37.1c2.5-13.1,4.8-26-2.2-38.1c-5.6-9.9-16.3-15-27.4-15.7
		c-8.9-0.6-18,1.3-26.2,4.7c-0.7,0.3-7.7,3.5-7.7,3.6c0,0-7.1-12.6-7.1-12.6c-0.3-0.7,12.8-6.3,14-6.7c5.1-1.9,10.3-3.4,15.6-4.3
		c10.5-1.9,21.5-1.7,31.8,1.3c13.7,4.1,25.3,14.6,29.5,28.4C159.2,78.2,155.3,99,153.1,111.6z"/>
</g>
</svg>
