<?xml version="1.0" encoding="UTF-8" standalone="no"?>
<svg
   xmlns:dc="http://purl.org/dc/elements/1.1/"
   xmlns:cc="http://creativecommons.org/ns#"
   xmlns:rdf="http://www.w3.org/1999/02/22-rdf-syntax-ns#"
   xmlns:svg="http://www.w3.org/2000/svg"
   xmlns="http://www.w3.org/2000/svg"
   viewBox="0 0 973.33331 213.33333"
   height="213.33333"
   width="973.33331"
   xml:space="preserve"
   id="svg2"
   version="1.1"><metadata
     id="metadata8"><rdf:RDF><cc:Work
         rdf:about=""><dc:format>image/svg+xml</dc:format><dc:type
           rdf:resource="http://purl.org/dc/dcmitype/StillImage" /></cc:Work></rdf:RDF></metadata><defs
     id="defs6"><clipPath
       id="clipPath18"
       clipPathUnits="userSpaceOnUse"><path
         id="path16"
         d="M 0,160 H 730 V 0 H 0 Z" /></clipPath></defs><g
     transform="matrix(1.3333333,0,0,-1.3333333,0,213.33333)"
     id="g10"><g
       id="g12"><g
         clip-path="url(#clipPath18)"
         id="g14"><g
           transform="translate(13.9604,80)"
           id="g20"><path
             id="path22"
             style="fill:#77b82e;fill-opacity:1;fill-rule:nonzero;stroke:none"
             d="m 0,0 v 0 c 0,-20.188 10.77,-38.843 28.253,-48.937 17.484,-10.093 39.024,-10.093 56.508,0 17.483,10.094 28.253,28.749 28.253,48.937 0,20.188 -10.77,38.843 -28.253,48.937 -17.484,10.094 -39.024,10.094 -56.508,0 C 10.77,38.843 0,20.188 0,0" /></g><g
           transform="translate(76.5674,57.5283)"
           id="g24"><path
             id="path26"
             style="fill:#ffffff;fill-opacity:1;fill-rule:nonzero;stroke:none"
             d="m 0,0 c -4.954,-2.606 -11.935,-4.579 -16.827,-4.406 -4.19,0.148 -7.633,1.382 -10.328,4.145 -2.689,2.764 -4.034,6.3 -4.034,10.609 0,1.508 0.122,2.975 0.371,4.388 0.413,2.398 1.175,4.659 2.297,6.792 0.979,1.874 2.229,3.642 3.753,5.315 4.278,4.685 9.323,7.03 15.119,7.03 4.648,0 8.359,-1.916 11.138,-5.749 0.552,-0.76 1.004,-1.552 1.407,-2.361 l -25.528,-8.78 v -4.135 l 28.999,7.441 c 2.611,0.646 3.983,2.894 3.383,5.516 l -0.271,0.988 c -1.836,7.685 -7.757,14.48 -15.749,16.089 -9.285,1.869 -18.775,-2.747 -25.152,-9.24 -0.227,-0.231 -0.451,-0.465 -0.672,-0.701 -6.421,-6.844 -9.629,-14.701 -9.629,-23.562 0.026,-6.675 2.054,-12.196 6.077,-16.564 4.023,-4.373 9.105,-6.559 15.246,-6.559 9.795,0 22.493,6.323 29.234,13.159 L 8.765,-0.536 C 6.185,1.299 2.802,1.476 0,0" /></g><g
           transform="translate(88.2832,44.7109)"
           id="g28"><path
             id="path30"
             style="fill:#ffffff;fill-opacity:1;fill-rule:nonzero;stroke:none"
             d="m 0,0 h -5.258 c 0.857,4.418 1.714,8.837 2.571,13.256 1.355,6.986 2.71,13.973 4.065,20.96 1.433,7.386 2.689,14.684 -1.221,21.55 -3.179,5.581 -9.205,8.483 -15.463,8.898 -5.048,0.335 -10.182,-0.742 -14.832,-2.678 -0.387,-0.161 -4.373,-1.955 -4.326,-2.038 0,0 -4.003,7.138 -4.003,7.139 -0.18,0.411 7.232,3.533 7.924,3.793 2.863,1.075 5.825,1.896 8.838,2.427 5.931,1.047 12.141,0.987 17.941,-0.737 7.726,-2.296 14.298,-8.256 16.667,-16.039 2.713,-8.909 0.523,-20.655 -0.716,-27.799 L 8.06,6.69 C 7.333,2.812 3.947,0 0,0" /></g><g
           transform="translate(332.5205,68.626)"
           id="g32"><path
             id="path34"
             style="fill:#263a67;fill-opacity:1;fill-rule:nonzero;stroke:none"
             d="m 0,0 c 0,-1.018 0.162,-1.905 0.487,-2.664 0.325,-0.759 0.767,-1.393 1.325,-1.9 0.559,-0.509 1.209,-0.888 1.952,-1.138 0.741,-0.25 1.529,-0.375 2.363,-0.375 0.801,0 1.671,0.203 2.613,0.612 0.942,0.408 1.818,1.009 2.626,1.801 0.809,0.792 1.485,1.771 2.027,2.938 0.541,1.167 0.812,2.509 0.812,4.028 V 6.353 C 13.488,6.436 12.729,6.511 11.93,6.577 11.129,6.644 10.253,6.678 9.303,6.678 8.253,6.678 7.178,6.577 6.077,6.377 4.977,6.178 3.977,5.823 3.075,5.314 2.176,4.806 1.437,4.122 0.862,3.264 0.287,2.404 0,1.317 0,0 m 14.155,14.48 c 0,1.017 -0.154,1.955 -0.463,2.814 -0.308,0.859 -0.775,1.601 -1.4,2.226 -0.626,0.626 -1.405,1.113 -2.339,1.463 -0.933,0.35 -2.025,0.525 -3.276,0.525 -1.584,0 -3.106,-0.304 -4.565,-0.912 -1.459,-0.61 -2.821,-1.464 -4.089,-2.564 -0.533,-0.467 -1.003,-0.825 -1.413,-1.075 -0.408,-0.251 -0.829,-0.376 -1.262,-0.376 -0.284,0 -0.588,0.059 -0.913,0.176 -0.326,0.116 -0.697,0.308 -1.113,0.575 l -0.2,0.125 c -0.634,0.35 -1.104,0.691 -1.413,1.025 -0.309,0.333 -0.463,0.708 -0.463,1.125 0,0.517 0.275,1.151 0.825,1.901 0.884,1.2 1.902,2.284 3.051,3.252 1.151,0.966 2.405,1.787 3.765,2.463 1.358,0.675 2.8,1.196 4.326,1.563 1.526,0.366 3.097,0.55 4.715,0.55 3.301,0 6.064,-0.392 8.29,-1.175 2.226,-0.784 4.014,-1.922 5.365,-3.414 1.351,-1.492 2.317,-3.314 2.901,-5.465 0.583,-2.151 0.875,-4.593 0.875,-7.328 V -8.479 c 0,-0.784 -0.066,-1.438 -0.2,-1.962 -0.134,-0.526 -0.354,-0.947 -0.663,-1.264 -0.309,-0.316 -0.725,-0.537 -1.25,-0.662 -0.525,-0.125 -1.18,-0.188 -1.963,-0.188 h -2.226 c -0.934,0 -1.713,0.075 -2.338,0.225 -0.626,0.15 -1.126,0.408 -1.501,0.775 -0.375,0.367 -0.638,0.859 -0.788,1.476 -0.15,0.617 -0.225,1.384 -0.225,2.301 h -0.05 c -0.534,-0.784 -1.159,-1.522 -1.876,-2.213 -0.716,-0.693 -1.525,-1.297 -2.425,-1.814 -0.901,-0.516 -1.889,-0.924 -2.964,-1.225 -1.076,-0.3 -2.239,-0.45 -3.49,-0.45 -1.284,0 -2.546,0.125 -3.788,0.376 -1.243,0.249 -2.418,0.624 -3.527,1.124 -1.108,0.501 -2.13,1.114 -3.064,1.838 -0.933,0.726 -1.742,1.572 -2.425,2.538 -0.684,0.968 -1.217,2.042 -1.601,3.227 -0.384,1.184 -0.575,2.477 -0.575,3.877 0,1.917 0.304,3.601 0.913,5.052 0.608,1.451 1.438,2.705 2.488,3.763 1.051,1.059 2.281,1.939 3.689,2.639 1.409,0.701 2.901,1.263 4.477,1.689 1.575,0.424 3.197,0.725 4.865,0.899 1.667,0.175 3.292,0.263 4.877,0.263 0.75,0 1.488,-0.021 2.212,-0.063 0.726,-0.041 1.463,-0.104 2.214,-0.187 z" /></g><g
           transform="translate(400.3955,63.6738)"
           id="g36"><path
             id="path38"
             style="fill:#263a67;fill-opacity:1;fill-rule:nonzero;stroke:none"
             d="m 0,0 c -0.8,-1.351 -1.746,-2.555 -2.838,-3.613 -1.092,-1.06 -2.322,-1.951 -3.689,-2.677 -1.368,-0.725 -2.86,-1.279 -4.477,-1.663 -1.617,-0.383 -3.359,-0.575 -5.226,-0.575 -3.268,0 -6.203,0.521 -8.804,1.563 -2.601,1.042 -4.81,2.492 -6.627,4.352 -1.818,1.858 -3.21,4.081 -4.177,6.665 -0.967,2.584 -1.451,5.419 -1.451,8.504 0,3.084 0.492,5.951 1.476,8.602 0.984,2.652 2.401,4.948 4.251,6.89 1.851,1.943 4.102,3.468 6.753,4.577 2.651,1.109 5.644,1.663 8.979,1.663 3.601,0 6.715,-0.721 9.341,-2.163 2.626,-1.442 4.772,-3.481 6.439,-6.115 0.518,-0.817 0.776,-1.5 0.776,-2.051 0,-0.483 -0.179,-0.908 -0.539,-1.275 -0.358,-0.368 -0.895,-0.742 -1.612,-1.125 L -1.65,21.434 c -0.416,-0.234 -0.784,-0.405 -1.1,-0.513 -0.317,-0.109 -0.618,-0.163 -0.901,-0.163 -0.484,0 -0.925,0.163 -1.326,0.488 -0.399,0.325 -0.849,0.804 -1.349,1.438 -1.051,1.316 -2.248,2.313 -3.59,2.988 -1.342,0.676 -2.872,1.014 -4.589,1.014 -1.718,0 -3.264,-0.313 -4.64,-0.938 -1.375,-0.625 -2.546,-1.526 -3.513,-2.702 -0.967,-1.175 -1.709,-2.609 -2.226,-4.301 -0.516,-1.692 -0.775,-3.614 -0.775,-5.765 0,-1.817 0.221,-3.555 0.663,-5.214 0.441,-1.66 1.121,-3.122 2.038,-4.389 0.917,-1.268 2.067,-2.28 3.451,-3.039 1.384,-0.76 3.027,-1.138 4.927,-1.138 1.718,0 3.347,0.337 4.89,1.013 1.542,0.675 2.946,1.746 4.213,3.214 0.434,0.5 0.818,0.875 1.151,1.125 0.334,0.25 0.691,0.375 1.075,0.375 0.267,0 0.551,-0.059 0.851,-0.175 0.299,-0.117 0.65,-0.284 1.05,-0.5 L -1.125,4.126 C -0.508,3.793 -0.05,3.455 0.251,3.113 0.551,2.771 0.701,2.385 0.701,1.951 0.701,1.417 0.468,0.767 0,0" /></g><g
           transform="translate(441.5107,63.6738)"
           id="g40"><path
             id="path42"
             style="fill:#263a67;fill-opacity:1;fill-rule:nonzero;stroke:none"
             d="m 0,0 c -0.8,-1.351 -1.746,-2.555 -2.838,-3.613 -1.092,-1.06 -2.322,-1.951 -3.689,-2.677 -1.368,-0.725 -2.86,-1.279 -4.477,-1.663 -1.617,-0.383 -3.359,-0.575 -5.226,-0.575 -3.269,0 -6.204,0.521 -8.804,1.563 -2.601,1.042 -4.81,2.492 -6.628,4.352 -1.817,1.858 -3.209,4.081 -4.176,6.665 -0.967,2.584 -1.451,5.419 -1.451,8.504 0,3.084 0.492,5.951 1.476,8.602 0.984,2.652 2.401,4.948 4.251,6.89 1.851,1.943 4.102,3.468 6.752,4.577 2.652,1.109 5.644,1.663 8.98,1.663 3.601,0 6.715,-0.721 9.341,-2.163 2.626,-1.442 4.772,-3.481 6.439,-6.115 0.518,-0.817 0.776,-1.5 0.776,-2.051 0,-0.483 -0.179,-0.908 -0.539,-1.275 -0.358,-0.368 -0.895,-0.742 -1.612,-1.125 L -1.65,21.434 c -0.416,-0.234 -0.784,-0.405 -1.1,-0.513 -0.317,-0.109 -0.618,-0.163 -0.901,-0.163 -0.484,0 -0.925,0.163 -1.326,0.488 -0.399,0.325 -0.849,0.804 -1.349,1.438 -1.051,1.316 -2.248,2.313 -3.59,2.988 -1.342,0.676 -2.872,1.014 -4.589,1.014 -1.718,0 -3.264,-0.313 -4.64,-0.938 -1.375,-0.625 -2.546,-1.526 -3.513,-2.702 -0.967,-1.175 -1.709,-2.609 -2.226,-4.301 -0.517,-1.692 -0.775,-3.614 -0.775,-5.765 0,-1.817 0.221,-3.555 0.662,-5.214 0.442,-1.66 1.122,-3.122 2.039,-4.389 0.916,-1.268 2.067,-2.28 3.451,-3.039 1.384,-0.76 3.027,-1.138 4.927,-1.138 1.717,0 3.347,0.337 4.89,1.013 1.542,0.675 2.946,1.746 4.213,3.214 0.434,0.5 0.818,0.875 1.151,1.125 0.334,0.25 0.691,0.375 1.075,0.375 0.267,0 0.551,-0.059 0.851,-0.175 0.299,-0.117 0.65,-0.284 1.05,-0.5 L -1.125,4.126 C -0.508,3.793 -0.05,3.455 0.251,3.113 0.551,2.771 0.701,2.385 0.701,1.951 0.701,1.417 0.468,0.767 0,0" /></g><g
           transform="translate(466.8701,90.6846)"
           id="g44"><path
             id="path46"
             style="fill:#263a67;fill-opacity:1;fill-rule:nonzero;stroke:none"
             d="m 0,0 c -1.734,0 -3.222,-0.392 -4.464,-1.176 -1.242,-0.783 -2.264,-1.825 -3.063,-3.126 -0.801,-1.3 -1.389,-2.793 -1.764,-4.476 -0.375,-1.685 -0.563,-3.436 -0.563,-5.252 0,-1.885 0.184,-3.686 0.55,-5.403 0.367,-1.717 0.942,-3.234 1.726,-4.551 0.784,-1.318 1.801,-2.369 3.052,-3.152 1.25,-0.783 2.751,-1.175 4.501,-1.175 1.401,0 2.706,0.288 3.915,0.863 1.208,0.575 2.25,1.446 3.126,2.613 0.875,1.167 1.562,2.643 2.062,4.427 0.5,1.784 0.751,3.885 0.751,6.303 0,1.833 -0.192,3.601 -0.575,5.302 -0.384,1.7 -0.976,3.201 -1.776,4.501 -0.8,1.301 -1.818,2.343 -3.051,3.126 C 3.192,-0.392 1.718,0 0,0 m 0.226,7.277 c 3.317,0 6.294,-0.537 8.927,-1.612 2.634,-1.076 4.865,-2.56 6.691,-4.453 1.825,-1.892 3.221,-4.122 4.189,-6.69 0.967,-2.567 1.45,-5.343 1.45,-8.328 0,-3.168 -0.475,-6.081 -1.425,-8.74 -0.951,-2.66 -2.347,-4.953 -4.189,-6.878 -1.843,-1.926 -4.11,-3.427 -6.803,-4.502 -2.693,-1.075 -5.773,-1.613 -9.241,-1.613 -3.386,0 -6.399,0.518 -9.041,1.551 -2.642,1.034 -4.873,2.479 -6.69,4.339 -1.818,1.859 -3.206,4.081 -4.164,6.665 -0.959,2.584 -1.438,5.427 -1.438,8.529 0,3.15 0.475,6.052 1.425,8.703 0.95,2.65 2.347,4.943 4.189,6.877 1.843,1.934 4.115,3.443 6.816,4.527 2.7,1.083 5.802,1.625 9.304,1.625" /></g><g
           transform="translate(504.7344,71.9023)"
           id="g48"><path
             id="path50"
             style="fill:#263a67;fill-opacity:1;fill-rule:nonzero;stroke:none"
             d="m 0,0 c 0,-1.401 0.108,-2.639 0.325,-3.714 0.217,-1.076 0.579,-1.98 1.088,-2.714 0.509,-0.733 1.18,-1.292 2.013,-1.676 0.834,-0.383 1.859,-0.575 3.077,-0.575 1.167,0 2.251,0.25 3.251,0.751 1,0.5 1.863,1.179 2.588,2.037 0.725,0.86 1.293,1.855 1.701,2.99 0.408,1.133 0.613,2.326 0.613,3.576 v 20.383 c 0,0.783 0.062,1.438 0.188,1.963 0.125,0.525 0.344,0.942 0.662,1.25 0.316,0.309 0.738,0.53 1.263,0.663 0.526,0.134 1.179,0.201 1.963,0.201 h 3.052 c 0.783,0 1.438,-0.067 1.963,-0.201 0.524,-0.133 0.941,-0.354 1.25,-0.663 0.309,-0.308 0.529,-0.725 0.663,-1.25 0.133,-0.525 0.2,-1.18 0.2,-1.963 v -32.813 c 0,-0.784 -0.067,-1.438 -0.2,-1.963 -0.134,-0.525 -0.354,-0.946 -0.663,-1.263 -0.309,-0.317 -0.726,-0.538 -1.25,-0.663 -0.525,-0.125 -1.18,-0.187 -1.963,-0.187 h -2.076 c -0.984,0 -1.801,0.079 -2.451,0.237 -0.651,0.158 -1.167,0.425 -1.551,0.8 -0.384,0.376 -0.654,0.884 -0.812,1.526 -0.16,0.641 -0.238,1.438 -0.238,2.388 l -0.05,0.026 c -0.517,-0.818 -1.171,-1.584 -1.963,-2.301 -0.792,-0.718 -1.693,-1.342 -2.702,-1.876 -1.008,-0.533 -2.109,-0.954 -3.3,-1.263 -1.193,-0.309 -2.448,-0.463 -3.765,-0.463 -1.984,0 -3.705,0.225 -5.164,0.675 -1.459,0.451 -2.71,1.089 -3.752,1.914 -1.042,0.825 -1.893,1.809 -2.551,2.951 -0.659,1.142 -1.18,2.409 -1.563,3.802 -0.384,1.392 -0.646,2.884 -0.787,4.477 -0.142,1.591 -0.213,3.247 -0.213,4.963 v 19.033 c 0,0.783 0.062,1.438 0.187,1.963 0.125,0.525 0.347,0.942 0.663,1.25 0.317,0.309 0.738,0.53 1.263,0.663 0.525,0.134 1.18,0.201 1.963,0.201 h 3.002 c 0.783,0 1.437,-0.067 1.963,-0.201 0.525,-0.133 0.941,-0.354 1.25,-0.663 0.308,-0.308 0.529,-0.725 0.663,-1.25 0.134,-0.525 0.2,-1.18 0.2,-1.963 z" /></g><g
           transform="translate(542.6982,56.0713)"
           id="g52"><path
             id="path54"
             style="fill:#263a67;fill-opacity:1;fill-rule:nonzero;stroke:none"
             d="M 0,0 C -0.783,0 -1.437,0.062 -1.963,0.187 -2.488,0.312 -2.909,0.533 -3.226,0.85 -3.543,1.167 -3.764,1.588 -3.889,2.113 -4.014,2.638 -4.076,3.292 -4.076,4.076 v 32.813 c 0,0.783 0.062,1.438 0.187,1.963 0.125,0.525 0.346,0.942 0.663,1.251 0.317,0.308 0.738,0.529 1.263,0.662 0.526,0.134 1.18,0.201 1.963,0.201 h 2.051 c 0.983,0 1.801,-0.08 2.452,-0.238 0.649,-0.159 1.166,-0.425 1.55,-0.8 0.384,-0.376 0.654,-0.884 0.812,-1.526 0.159,-0.642 0.239,-1.438 0.239,-2.388 l 0.049,-0.026 c 0.517,0.817 1.175,1.585 1.976,2.302 0.8,0.716 1.705,1.341 2.714,1.875 1.009,0.534 2.108,0.955 3.301,1.263 1.192,0.308 2.447,0.463 3.764,0.463 1.984,0 3.705,-0.217 5.164,-0.65 1.459,-0.434 2.71,-1.047 3.752,-1.839 1.041,-0.792 1.892,-1.75 2.551,-2.876 0.658,-1.125 1.18,-2.384 1.563,-3.776 0.383,-1.392 0.646,-2.901 0.788,-4.527 0.141,-1.626 0.212,-3.33 0.212,-5.114 V 4.076 c 0,-0.784 -0.067,-1.438 -0.2,-1.963 C 32.604,1.588 32.384,1.167 32.075,0.85 31.767,0.533 31.351,0.312 30.825,0.187 30.3,0.062 29.646,0 28.861,0 H 25.86 C 25.076,0 24.423,0.062 23.897,0.187 23.372,0.312 22.951,0.533 22.634,0.85 22.317,1.167 22.097,1.588 21.972,2.113 21.847,2.638 21.784,3.292 21.784,4.076 v 21.058 c 0,1.401 -0.108,2.639 -0.325,3.715 -0.217,1.075 -0.579,1.979 -1.088,2.713 -0.509,0.733 -1.18,1.292 -2.013,1.675 -0.835,0.384 -1.86,0.576 -3.077,0.576 -1.183,0 -2.272,-0.25 -3.263,-0.75 -0.993,-0.5 -1.856,-1.18 -2.589,-2.039 C 8.695,30.165 8.125,29.169 7.716,28.035 7.308,26.901 7.104,25.709 7.104,24.459 V 4.076 C 7.104,3.292 7.036,2.638 6.903,2.113 6.77,1.588 6.549,1.167 6.24,0.85 5.932,0.533 5.516,0.312 4.989,0.187 4.465,0.062 3.81,0 3.026,0 Z" /></g><g
           transform="translate(607.999,61.3477)"
           id="g56"><path
             id="path58"
             style="fill:#263a67;fill-opacity:1;fill-rule:nonzero;stroke:none"
             d="m 0,0 c 0.184,-0.7 0.275,-1.275 0.275,-1.726 0,-0.566 -0.159,-1.034 -0.475,-1.4 -0.318,-0.367 -0.85,-0.734 -1.601,-1.1 -1.15,-0.567 -2.392,-1.038 -3.726,-1.413 -1.334,-0.376 -2.76,-0.563 -4.277,-0.563 -1.918,0 -3.638,0.246 -5.165,0.738 -1.525,0.491 -2.817,1.225 -3.876,2.201 -1.058,0.975 -1.872,2.201 -2.438,3.676 -0.568,1.476 -0.851,3.205 -0.851,5.19 v 22.783 h -2.901 c -0.699,0 -1.287,0.058 -1.763,0.176 -0.475,0.116 -0.85,0.312 -1.125,0.587 -0.275,0.275 -0.472,0.65 -0.588,1.126 -0.117,0.475 -0.176,1.062 -0.176,1.763 0,0.7 0.059,1.288 0.176,1.763 0.116,0.475 0.313,0.85 0.588,1.125 0.275,0.276 0.65,0.471 1.125,0.588 0.476,0.116 1.064,0.175 1.763,0.175 h 2.901 v 6.628 c 0,0.784 0.063,1.438 0.189,1.963 0.124,0.525 0.345,0.942 0.662,1.251 0.316,0.308 0.737,0.529 1.263,0.662 0.525,0.134 1.179,0.2 1.963,0.2 h 3.202 c 0.783,0 1.437,-0.066 1.962,-0.2 0.526,-0.133 0.943,-0.354 1.251,-0.662 0.308,-0.309 0.529,-0.726 0.663,-1.251 0.133,-0.525 0.2,-1.179 0.2,-1.963 v -6.628 h 6.102 c 0.684,0 1.251,-0.054 1.701,-0.162 0.45,-0.109 0.813,-0.3 1.087,-0.575 0.276,-0.276 0.467,-0.638 0.576,-1.089 0.108,-0.45 0.163,-1.017 0.163,-1.7 v -0.25 c 0,-0.684 -0.055,-1.251 -0.163,-1.701 -0.109,-0.45 -0.3,-0.813 -0.576,-1.087 -0.274,-0.276 -0.637,-0.468 -1.087,-0.576 -0.45,-0.109 -1.017,-0.163 -1.701,-0.163 h -6.102 V 7.403 c 0,-1.05 0.075,-1.971 0.225,-2.763 0.15,-0.792 0.404,-1.455 0.763,-1.989 0.358,-0.534 0.829,-0.934 1.413,-1.2 0.583,-0.266 1.309,-0.4 2.176,-0.4 0.483,0 0.959,0.057 1.425,0.175 0.466,0.117 0.942,0.275 1.425,0.475 0.351,0.133 0.664,0.241 0.939,0.325 0.274,0.083 0.528,0.125 0.763,0.125 0.416,0 0.75,-0.146 1,-0.437 0.25,-0.292 0.45,-0.788 0.6,-1.488 z" /></g><g
           transform="translate(619.8779,97.062)"
           id="g60"><path
             id="path62"
             style="fill:#263a67;fill-opacity:1;fill-rule:nonzero;stroke:none"
             d="m 0,0 c 0.783,0 1.438,-0.067 1.963,-0.2 0.525,-0.134 0.942,-0.355 1.251,-0.663 0.308,-0.308 0.529,-0.725 0.663,-1.25 0.133,-0.526 0.199,-1.18 0.199,-1.964 v -32.838 c 0,-0.784 -0.066,-1.438 -0.199,-1.962 C 3.743,-39.403 3.522,-39.824 3.214,-40.141 2.905,-40.458 2.488,-40.678 1.963,-40.803 1.438,-40.928 0.783,-40.991 0,-40.991 h -3.001 c -0.784,0 -1.438,0.063 -1.964,0.188 -0.524,0.125 -0.946,0.345 -1.263,0.662 -0.316,0.317 -0.538,0.738 -0.663,1.264 -0.124,0.524 -0.187,1.178 -0.187,1.962 v 32.838 c 0,0.784 0.063,1.438 0.187,1.964 0.125,0.525 0.347,0.942 0.663,1.25 0.317,0.308 0.739,0.529 1.263,0.663 0.526,0.133 1.18,0.2 1.964,0.2 z M 5.103,11.904 C 5.103,10.97 4.931,10.1 4.589,9.291 4.248,8.482 3.78,7.778 3.188,7.178 2.597,6.578 1.896,6.102 1.088,5.752 0.279,5.402 -0.592,5.227 -1.525,5.227 c -0.934,0 -1.805,0.175 -2.614,0.525 -0.809,0.35 -1.517,0.826 -2.126,1.426 -0.609,0.6 -1.089,1.304 -1.438,2.113 -0.35,0.809 -0.526,1.679 -0.526,2.613 0,0.934 0.176,1.801 0.526,2.601 0.349,0.801 0.829,1.497 1.438,2.089 0.609,0.592 1.317,1.054 2.126,1.388 0.809,0.333 1.68,0.5 2.614,0.5 0.933,0 1.804,-0.167 2.613,-0.5 0.808,-0.334 1.509,-0.796 2.1,-1.388 0.592,-0.592 1.06,-1.288 1.401,-2.089 0.342,-0.8 0.514,-1.667 0.514,-2.601" /></g><g
           transform="translate(636.083,56.0713)"
           id="g64"><path
             id="path66"
             style="fill:#263a67;fill-opacity:1;fill-rule:nonzero;stroke:none"
             d="M 0,0 C -0.783,0 -1.437,0.062 -1.963,0.187 -2.487,0.312 -2.909,0.533 -3.226,0.85 -3.543,1.167 -3.763,1.588 -3.889,2.113 -4.014,2.638 -4.076,3.292 -4.076,4.076 v 32.813 c 0,0.783 0.062,1.438 0.187,1.963 0.126,0.525 0.346,0.942 0.663,1.251 0.317,0.308 0.739,0.529 1.263,0.662 0.526,0.134 1.18,0.201 1.963,0.201 h 2.052 c 0.983,0 1.8,-0.08 2.45,-0.238 0.65,-0.159 1.167,-0.425 1.551,-0.8 0.384,-0.376 0.654,-0.884 0.812,-1.526 0.159,-0.642 0.239,-1.438 0.239,-2.388 l 0.049,-0.026 c 0.517,0.817 1.175,1.585 1.976,2.302 0.8,0.716 1.705,1.341 2.714,1.875 1.009,0.534 2.108,0.955 3.301,1.263 1.192,0.308 2.447,0.463 3.764,0.463 1.984,0 3.705,-0.217 5.164,-0.65 1.459,-0.434 2.71,-1.047 3.752,-1.839 1.041,-0.792 1.892,-1.75 2.551,-2.876 0.658,-1.125 1.18,-2.384 1.563,-3.776 0.383,-1.392 0.646,-2.901 0.788,-4.527 0.141,-1.626 0.212,-3.33 0.212,-5.114 V 4.076 c 0,-0.784 -0.067,-1.438 -0.2,-1.963 C 32.604,1.588 32.384,1.167 32.075,0.85 31.767,0.533 31.351,0.312 30.825,0.187 30.3,0.062 29.646,0 28.861,0 H 25.86 C 25.076,0 24.422,0.062 23.897,0.187 23.372,0.312 22.951,0.533 22.634,0.85 22.317,1.167 22.097,1.588 21.972,2.113 21.847,2.638 21.784,3.292 21.784,4.076 v 21.058 c 0,1.401 -0.108,2.639 -0.325,3.715 -0.217,1.075 -0.579,1.979 -1.088,2.713 -0.509,0.733 -1.18,1.292 -2.013,1.675 -0.835,0.384 -1.86,0.576 -3.077,0.576 -1.183,0 -2.272,-0.25 -3.263,-0.75 -0.993,-0.5 -1.856,-1.18 -2.589,-2.039 C 8.695,30.165 8.125,29.169 7.716,28.035 7.308,26.901 7.104,25.709 7.104,24.459 V 4.076 C 7.104,3.292 7.037,2.638 6.903,2.113 6.77,1.588 6.549,1.167 6.24,0.85 5.932,0.533 5.516,0.312 4.989,0.187 4.465,0.062 3.81,0 3.026,0 Z" /></g><g
           transform="translate(686.2529,77.4795)"
           id="g68"><path
             id="path70"
             style="fill:#263a67;fill-opacity:1;fill-rule:nonzero;stroke:none"
             d="m 0,0 c 0,-1.868 0.167,-3.605 0.501,-5.215 0.333,-1.609 0.866,-3.01 1.601,-4.201 0.732,-1.192 1.695,-2.126 2.887,-2.801 1.193,-0.676 2.656,-1.013 4.39,-1.013 1.267,0 2.451,0.25 3.552,0.75 1.1,0.501 2.049,1.179 2.85,2.039 0.8,0.858 1.43,1.858 1.888,3.001 0.459,1.141 0.687,2.354 0.687,3.638 v 6.978 c 0,1.534 -0.261,2.893 -0.787,4.076 -0.525,1.184 -1.209,2.181 -2.05,2.989 -0.842,0.808 -1.781,1.421 -2.814,1.839 -1.034,0.416 -2.059,0.625 -3.076,0.625 -1.701,0 -3.155,-0.33 -4.364,-0.988 C 4.056,11.058 3.06,10.154 2.276,9.003 1.492,7.853 0.917,6.506 0.551,4.964 0.184,3.422 0,1.767 0,0 m 29.786,-18.332 c 0,-3.518 -0.383,-6.674 -1.15,-9.467 -0.767,-2.792 -2.005,-5.164 -3.714,-7.115 -1.709,-1.95 -3.927,-3.442 -6.652,-4.477 -2.726,-1.033 -6.041,-1.55 -9.942,-1.55 -1.45,0 -2.98,0.121 -4.589,0.362 -1.609,0.243 -3.197,0.684 -4.764,1.326 -1.568,0.643 -3.068,1.526 -4.502,2.65 -1.434,1.126 -2.709,2.573 -3.827,4.34 -0.55,0.851 -0.825,1.568 -0.825,2.151 0,0.484 0.179,0.925 0.538,1.325 0.358,0.4 0.887,0.817 1.588,1.251 l 0.2,0.125 c 0.85,0.534 1.559,0.801 2.125,0.801 0.451,0 0.872,-0.151 1.264,-0.451 0.392,-0.3 0.829,-0.75 1.313,-1.35 1.334,-1.617 2.872,-2.814 4.614,-3.589 1.742,-0.775 3.714,-1.163 5.915,-1.163 1.968,0 3.643,0.342 5.026,1.025 1.384,0.684 2.519,1.668 3.403,2.951 0.882,1.285 1.529,2.847 1.937,4.69 0.409,1.843 0.612,3.914 0.612,6.215 v 2.876 c -0.465,-0.6 -1.053,-1.23 -1.762,-1.888 -0.708,-0.659 -1.538,-1.268 -2.489,-1.826 -0.95,-0.559 -2.025,-1.018 -3.225,-1.375 -1.201,-0.359 -2.526,-0.538 -3.977,-0.538 -3.018,0 -5.699,0.52 -8.041,1.562 -2.342,1.042 -4.314,2.468 -5.915,4.278 -1.6,1.808 -2.813,3.947 -3.638,6.415 -0.826,2.466 -1.239,5.127 -1.239,7.977 0,2.852 0.409,5.561 1.226,8.129 0.816,2.567 2.026,4.826 3.627,6.777 1.6,1.951 3.571,3.501 5.914,4.652 2.343,1.15 5.04,1.725 8.091,1.725 1.301,0 2.521,-0.141 3.664,-0.424 1.141,-0.284 2.192,-0.68 3.151,-1.188 0.958,-0.509 1.821,-1.126 2.588,-1.851 0.767,-0.726 1.426,-1.522 1.976,-2.389 l 0.049,0.025 c 0,0.951 0.081,1.739 0.239,2.364 0.158,0.625 0.428,1.125 0.812,1.501 0.384,0.375 0.897,0.641 1.538,0.8 0.642,0.158 1.447,0.238 2.414,0.238 h 2.351 c 0.783,0 1.438,-0.067 1.963,-0.201 0.525,-0.133 0.941,-0.354 1.251,-0.663 0.308,-0.308 0.529,-0.725 0.663,-1.25 0.133,-0.525 0.199,-1.18 0.199,-1.963 z" /></g><g
           transform="translate(185.9038,81.5557)"
           id="g72"><path
             id="path74"
             style="fill:#77b82e;fill-opacity:1;fill-rule:nonzero;stroke:none"
             d="m 0,0 c 0,0.917 -0.163,1.897 -0.488,2.939 -0.325,1.041 -0.837,2.001 -1.538,2.876 -0.7,0.875 -1.6,1.601 -2.701,2.176 -1.1,0.575 -2.425,0.863 -3.976,0.863 -1.151,0 -2.176,-0.163 -3.077,-0.488 -0.9,-0.325 -1.7,-0.746 -2.401,-1.263 -0.699,-0.517 -1.296,-1.101 -1.788,-1.751 -0.491,-0.65 -0.892,-1.305 -1.2,-1.963 C -17.478,2.73 -17.707,2.105 -17.857,1.513 -18.007,0.921 -18.082,0.417 -18.082,0 Z m 9.179,-17.106 c -0.834,-1.318 -1.805,-2.543 -2.914,-3.677 -1.109,-1.134 -2.38,-2.117 -3.814,-2.951 -1.434,-0.834 -3.055,-1.488 -4.865,-1.963 -1.809,-0.475 -3.838,-0.713 -6.089,-0.713 -3.335,0 -6.328,0.534 -8.978,1.6 -2.652,1.067 -4.903,2.551 -6.753,4.453 -1.851,1.9 -3.268,4.151 -4.252,6.753 -0.984,2.6 -1.475,5.434 -1.475,8.502 0,3.151 0.516,6.044 1.55,8.679 1.034,2.634 2.489,4.902 4.364,6.802 1.876,1.9 4.13,3.38 6.765,4.439 2.635,1.059 5.561,1.588 8.779,1.588 0.883,0 1.951,-0.071 3.201,-0.212 1.25,-0.142 2.564,-0.446 3.939,-0.913 1.376,-0.467 2.755,-1.13 4.139,-1.988 C 4.16,12.434 5.44,11.284 6.615,9.841 7.791,8.399 8.795,6.632 9.629,4.54 c 0.833,-2.093 1.392,-4.607 1.675,-7.541 0.017,-0.184 0.029,-0.35 0.038,-0.5 0.008,-0.15 0.012,-0.301 0.012,-0.45 0,-1.185 -0.304,-2.001 -0.912,-2.451 C 9.833,-6.853 8.829,-7.078 7.428,-7.078 h -25.66 c 0,-0.783 0.091,-1.609 0.275,-2.476 0.184,-0.867 0.471,-1.729 0.863,-2.588 0.392,-0.859 0.892,-1.675 1.5,-2.451 0.609,-0.775 1.339,-1.463 2.189,-2.063 0.85,-0.6 1.821,-1.076 2.914,-1.426 1.091,-0.35 2.321,-0.525 3.688,-0.525 1.984,0 3.868,0.363 5.653,1.087 1.784,0.726 3.426,1.873 4.926,3.44 0.451,0.483 0.855,0.846 1.214,1.088 0.358,0.241 0.737,0.362 1.137,0.362 0.484,0 1.076,-0.217 1.776,-0.649 l 0.2,-0.126 c 0.584,-0.317 1.017,-0.634 1.301,-0.95 0.283,-0.317 0.425,-0.667 0.425,-1.051 0,-0.45 -0.217,-1.017 -0.65,-1.7" /></g><g
           transform="translate(223.8433,59.5977)"
           id="g76"><path
             id="path78"
             style="fill:#77b82e;fill-opacity:1;fill-rule:nonzero;stroke:none"
             d="M 0,0 C -0.3,-0.734 -0.596,-1.33 -0.888,-1.788 -1.18,-2.247 -1.521,-2.605 -1.913,-2.864 -2.305,-3.123 -2.768,-3.298 -3.301,-3.389 -3.835,-3.481 -4.494,-3.526 -5.277,-3.526 h -0.25 c -0.801,0 -1.467,0.045 -2.001,0.137 -0.534,0.091 -0.996,0.266 -1.388,0.525 -0.392,0.259 -0.733,0.617 -1.025,1.076 -0.292,0.458 -0.588,1.054 -0.888,1.788 L -24.91,33.688 c -0.333,0.816 -0.5,1.483 -0.5,2 0,0.634 0.242,1.084 0.725,1.351 0.484,0.267 1.242,0.4 2.276,0.4 h 3.952 c 0.851,0 1.559,-0.05 2.126,-0.15 0.566,-0.1 1.054,-0.288 1.463,-0.562 0.408,-0.275 0.763,-0.663 1.063,-1.164 0.3,-0.5 0.6,-1.142 0.9,-1.925 L -4.677,12.38 3.626,33.638 c 0.301,0.783 0.601,1.425 0.901,1.925 0.3,0.501 0.654,0.889 1.063,1.164 0.408,0.274 0.896,0.462 1.463,0.562 0.567,0.1 1.276,0.15 2.125,0.15 h 2.376 c 1.034,0 1.793,-0.137 2.277,-0.413 0.483,-0.275 0.725,-0.729 0.725,-1.362 0,-0.484 -0.167,-1.151 -0.501,-2.001 z" /></g><g
           transform="translate(269.8105,81.5557)"
           id="g80"><path
             id="path82"
             style="fill:#77b82e;fill-opacity:1;fill-rule:nonzero;stroke:none"
             d="M 0,0 C 0,0.917 -0.162,1.897 -0.487,2.939 -0.813,3.98 -1.325,4.94 -2.026,5.815 -2.727,6.69 -3.627,7.416 -4.727,7.991 c -1.1,0.575 -2.425,0.863 -3.976,0.863 -1.151,0 -2.176,-0.163 -3.076,-0.488 -0.901,-0.325 -1.701,-0.746 -2.402,-1.263 -0.7,-0.517 -1.297,-1.101 -1.788,-1.751 -0.492,-0.65 -0.892,-1.305 -1.2,-1.963 C -17.478,2.73 -17.707,2.105 -17.857,1.513 -18.007,0.921 -18.082,0.417 -18.082,0 Z m 9.179,-17.106 c -0.834,-1.318 -1.806,-2.543 -2.914,-3.677 -1.109,-1.134 -2.38,-2.117 -3.814,-2.951 -1.434,-0.834 -3.055,-1.488 -4.865,-1.963 -1.809,-0.475 -3.839,-0.713 -6.089,-0.713 -3.335,0 -6.328,0.534 -8.978,1.6 -2.652,1.067 -4.903,2.551 -6.753,4.453 -1.851,1.9 -3.269,4.151 -4.252,6.753 -0.984,2.6 -1.476,5.434 -1.476,8.502 0,3.151 0.517,6.044 1.551,8.679 1.033,2.634 2.488,4.902 4.364,6.802 1.876,1.9 4.131,3.38 6.766,4.439 2.634,1.059 5.559,1.588 8.778,1.588 0.883,0 1.95,-0.071 3.201,-0.212 1.25,-0.142 2.564,-0.446 3.939,-0.913 1.376,-0.467 2.755,-1.13 4.138,-1.988 1.384,-0.859 2.664,-2.009 3.84,-3.452 1.176,-1.442 2.18,-3.209 3.014,-5.301 0.833,-2.093 1.392,-4.607 1.676,-7.541 0.015,-0.184 0.028,-0.35 0.037,-0.5 0.008,-0.15 0.012,-0.301 0.012,-0.45 0,-1.185 -0.304,-2.001 -0.913,-2.451 C 9.833,-6.853 8.828,-7.078 7.428,-7.078 h -25.66 c 0,-0.783 0.091,-1.609 0.275,-2.476 0.184,-0.867 0.471,-1.729 0.863,-2.588 0.392,-0.859 0.892,-1.675 1.5,-2.451 0.609,-0.775 1.338,-1.463 2.189,-2.063 0.85,-0.6 1.821,-1.076 2.914,-1.426 1.092,-0.35 2.321,-0.525 3.688,-0.525 1.985,0 3.868,0.363 5.653,1.087 1.784,0.726 3.425,1.873 4.926,3.44 0.451,0.483 0.855,0.846 1.213,1.088 0.359,0.241 0.739,0.362 1.138,0.362 0.483,0 1.076,-0.217 1.776,-0.649 l 0.2,-0.126 c 0.584,-0.317 1.017,-0.634 1.3,-0.95 0.284,-0.317 0.426,-0.667 0.426,-1.051 0,-0.45 -0.217,-1.017 -0.65,-1.7" /></g><g
           transform="translate(311.877,92.0347)"
           id="g84"><path
             id="path86"
             style="fill:#77b82e;fill-opacity:1;fill-rule:nonzero;stroke:none"
             d="m 0,0 c 0,-0.6 -0.047,-1.096 -0.138,-1.488 -0.091,-0.392 -0.238,-0.709 -0.437,-0.95 -0.2,-0.242 -0.459,-0.409 -0.776,-0.5 -0.317,-0.092 -0.7,-0.138 -1.151,-0.138 -0.217,0 -0.437,0.008 -0.662,0.025 -0.226,0.017 -0.48,0.042 -0.763,0.075 -0.25,0.033 -0.505,0.058 -0.762,0.075 -0.259,0.017 -0.53,0.025 -0.814,0.025 -1.233,0 -2.376,-0.2 -3.426,-0.601 -1.05,-0.399 -1.964,-0.983 -2.739,-1.75 -0.774,-0.767 -1.384,-1.7 -1.825,-2.801 -0.442,-1.1 -0.663,-2.351 -0.663,-3.751 v -20.108 c 0,-0.784 -0.067,-1.439 -0.199,-1.963 -0.134,-0.525 -0.355,-0.946 -0.664,-1.264 -0.308,-0.316 -0.725,-0.537 -1.251,-0.662 -0.524,-0.125 -1.179,-0.187 -1.962,-0.187 h -3.077 c -0.784,0 -1.438,0.062 -1.962,0.187 -0.526,0.125 -0.948,0.346 -1.264,0.662 -0.317,0.318 -0.537,0.739 -0.663,1.264 -0.124,0.524 -0.188,1.179 -0.188,1.963 V 0.926 c 0,0.783 0.064,1.438 0.188,1.963 0.126,0.525 0.346,0.942 0.663,1.25 0.316,0.309 0.738,0.529 1.264,0.663 0.524,0.134 1.178,0.2 1.962,0.2 h 2.476 c 0.9,0 1.651,-0.075 2.251,-0.225 0.601,-0.15 1.079,-0.4 1.438,-0.75 0.359,-0.35 0.613,-0.818 0.763,-1.401 0.15,-0.584 0.225,-1.317 0.225,-2.201 h 0.051 c 0.382,0.734 0.924,1.434 1.625,2.101 0.7,0.667 1.501,1.25 2.401,1.751 0.9,0.5 1.871,0.9 2.913,1.201 1.042,0.299 2.089,0.449 3.139,0.449 0.834,0 1.513,-0.087 2.039,-0.262 C -1.464,5.49 -1.056,5.215 -0.764,4.84 -0.472,4.464 -0.271,3.98 -0.163,3.389 -0.055,2.797 0,2.084 0,1.25 Z" /></g></g></g></g></svg>